<svg xmlns="http://www.w3.org/2000/svg" xmlns:xlink="http://www.w3.org/1999/xlink"><defs><style>.cls-1{fill:#fc6d26;}.cls-2{fill:#e24329;}.cls-3{fill:#fca326;}</style></defs><symbol id="icon-bell" viewBox="0 0 448 512">
    <path d="M439.39 362.29c-19.32-20.76-55.47-51.99-55.47-154.29 0-77.7-54.48-139.9-127.94-155.16V32c0-17.67-14.32-32-31.98-32s-31.98 14.33-31.98 32v20.84C118.56 68.1 64.08 130.3 64.08 208c0 102.3-36.15 133.53-55.47 154.29-6 6.45-8.66 14.16-8.61 21.71.11 16.4 12.98 32 32.1 32h383.8c19.12 0 32-15.6 32.1-32 .05-7.55-2.61-15.27-8.61-21.71zM67.53 368c21.22-27.97 44.42-74.33 44.53-159.42 0-.2-.06-.38-.06-.58 0-61.86 50.14-112 112-112s112 50.14 112 112c0 .2-.06.38-.06.58.11 85.1 23.31 131.46 44.53 159.42H67.53zM224 512c35.32 0 63.97-28.65 63.97-64H160.03c0 35.35 28.65 64 63.97 64z"/>
</symbol><symbol id="icon-github" viewBox="0 0 438.549 438.549">
<g>
	<path d="M409.132,114.573c-19.608-33.596-46.205-60.194-79.798-79.8C295.736,15.166,259.057,5.365,219.271,5.365
		c-39.781,0-76.472,9.804-110.063,29.408c-33.596,19.605-60.192,46.204-79.8,79.8C9.803,148.168,0,184.854,0,224.63
		c0,47.78,13.94,90.745,41.827,128.906c27.884,38.164,63.906,64.572,108.063,79.227c5.14,0.954,8.945,0.283,11.419-1.996
		c2.475-2.282,3.711-5.14,3.711-8.562c0-0.571-0.049-5.708-0.144-15.417c-0.098-9.709-0.144-18.179-0.144-25.406l-6.567,1.136
		c-4.187,0.767-9.469,1.092-15.846,1c-6.374-0.089-12.991-0.757-19.842-1.999c-6.854-1.231-13.229-4.086-19.13-8.559
		c-5.898-4.473-10.085-10.328-12.56-17.556l-2.855-6.57c-1.903-4.374-4.899-9.233-8.992-14.559
		c-4.093-5.331-8.232-8.945-12.419-10.848l-1.999-1.431c-1.332-0.951-2.568-2.098-3.711-3.429c-1.142-1.331-1.997-2.663-2.568-3.997
		c-0.572-1.335-0.098-2.43,1.427-3.289c1.525-0.859,4.281-1.276,8.28-1.276l5.708,0.853c3.807,0.763,8.516,3.042,14.133,6.851
		c5.614,3.806,10.229,8.754,13.846,14.842c4.38,7.806,9.657,13.754,15.846,17.847c6.184,4.093,12.419,6.136,18.699,6.136
		c6.28,0,11.704-0.476,16.274-1.423c4.565-0.952,8.848-2.383,12.847-4.285c1.713-12.758,6.377-22.559,13.988-29.41
		c-10.848-1.14-20.601-2.857-29.264-5.14c-8.658-2.286-17.605-5.996-26.835-11.14c-9.235-5.137-16.896-11.516-22.985-19.126
		c-6.09-7.614-11.088-17.61-14.987-29.979c-3.901-12.374-5.852-26.648-5.852-42.826c0-23.035,7.52-42.637,22.557-58.817
		c-7.044-17.318-6.379-36.732,1.997-58.24c5.52-1.715,13.706-0.428,24.554,3.853c10.85,4.283,18.794,7.952,23.84,10.994
		c5.046,3.041,9.089,5.618,12.135,7.708c17.705-4.947,35.976-7.421,54.818-7.421s37.117,2.474,54.823,7.421l10.849-6.849
		c7.419-4.57,16.18-8.758,26.262-12.565c10.088-3.805,17.802-4.853,23.134-3.138c8.562,21.509,9.325,40.922,2.279,58.24
		c15.036,16.18,22.559,35.787,22.559,58.817c0,16.178-1.958,30.497-5.853,42.966c-3.9,12.471-8.941,22.457-15.125,29.979
		c-6.191,7.521-13.901,13.85-23.131,18.986c-9.232,5.14-18.182,8.85-26.84,11.136c-8.662,2.286-18.415,4.004-29.263,5.146
		c9.894,8.562,14.842,22.077,14.842,40.539v60.237c0,3.422,1.19,6.279,3.572,8.562c2.379,2.279,6.136,2.95,11.276,1.995
		c44.163-14.653,80.185-41.062,108.068-79.226c27.88-38.161,41.825-81.126,41.825-128.906
		C438.536,184.851,428.728,148.168,409.132,114.573z"/>
</g>
<g>
</g>
<g>
</g>
<g>
</g>
<g>
</g>
<g>
</g>
<g>
</g>
<g>
</g>
<g>
</g>
<g>
</g>
<g>
</g>
<g>
</g>
<g>
</g>
<g>
</g>
<g>
</g>
<g>
</g>
</symbol><symbol id="icon-gitlab" viewBox="0 0 586 559"><title>gitlab-icon-rgb</title><g id="g44"><path id="path46" class="cls-1" d="M461.17,301.83l-18.91-58.12L404.84,128.43a6.47,6.47,0,0,0-12.27,0L355.15,243.64H230.82L193.4,128.43a6.46,6.46,0,0,0-12.26,0L143.78,243.64l-18.91,58.19a12.88,12.88,0,0,0,4.66,14.39L293,435,456.44,316.22a12.9,12.9,0,0,0,4.73-14.39"/></g><g id="g48"><path id="path50" class="cls-2" d="M293,434.91h0l62.16-191.28H230.87L293,434.91Z"/></g><g id="g56"><path id="path58" class="cls-1" d="M293,434.91,230.82,243.63h-87L293,434.91Z"/></g><g id="g64"><path id="path66" class="cls-3" d="M143.75,243.69h0l-18.91,58.12a12.88,12.88,0,0,0,4.66,14.39L293,435,143.75,243.69Z"/></g><g id="g72"><path id="path74" class="cls-2" d="M143.78,243.69h87.11L193.4,128.49a6.47,6.47,0,0,0-12.27,0l-37.35,115.2Z"/></g><g id="g76"><path id="path78" class="cls-1" d="M293,434.91l62.16-191.28H442.3L293,434.91Z"/></g><g id="g80"><path id="path82" class="cls-3" d="M442.24,243.69h0l18.91,58.12a12.85,12.85,0,0,1-4.66,14.39L293,434.91l149.2-191.22Z"/></g><g id="g84"><path id="path86" class="cls-2" d="M442.28,243.69h-87.1l37.42-115.2a6.46,6.46,0,0,1,12.26,0l37.42,115.2Z"/></g></symbol><symbol id="icon-settings" viewBox="0 0 54 54">
<g>
	<path d="M51.22,21h-5.052c-0.812,0-1.481-0.447-1.792-1.197s-0.153-1.54,0.42-2.114l3.572-3.571
		c0.525-0.525,0.814-1.224,0.814-1.966c0-0.743-0.289-1.441-0.814-1.967l-4.553-4.553c-1.05-1.05-2.881-1.052-3.933,0l-3.571,3.571
		c-0.574,0.573-1.366,0.733-2.114,0.421C33.447,9.313,33,8.644,33,7.832V2.78C33,1.247,31.753,0,30.22,0H23.78
		C22.247,0,21,1.247,21,2.78v5.052c0,0.812-0.447,1.481-1.197,1.792c-0.748,0.313-1.54,0.152-2.114-0.421l-3.571-3.571
		c-1.052-1.052-2.883-1.05-3.933,0l-4.553,4.553c-0.525,0.525-0.814,1.224-0.814,1.967c0,0.742,0.289,1.44,0.814,1.966l3.572,3.571
		c0.573,0.574,0.73,1.364,0.42,2.114S8.644,21,7.832,21H2.78C1.247,21,0,22.247,0,23.78v6.439C0,31.753,1.247,33,2.78,33h5.052
		c0.812,0,1.481,0.447,1.792,1.197s0.153,1.54-0.42,2.114l-3.572,3.571c-0.525,0.525-0.814,1.224-0.814,1.966
		c0,0.743,0.289,1.441,0.814,1.967l4.553,4.553c1.051,1.051,2.881,1.053,3.933,0l3.571-3.572c0.574-0.573,1.363-0.731,2.114-0.42
		c0.75,0.311,1.197,0.98,1.197,1.792v5.052c0,1.533,1.247,2.78,2.78,2.78h6.439c1.533,0,2.78-1.247,2.78-2.78v-5.052
		c0-0.812,0.447-1.481,1.197-1.792c0.751-0.312,1.54-0.153,2.114,0.42l3.571,3.572c1.052,1.052,2.883,1.05,3.933,0l4.553-4.553
		c0.525-0.525,0.814-1.224,0.814-1.967c0-0.742-0.289-1.44-0.814-1.966l-3.572-3.571c-0.573-0.574-0.73-1.364-0.42-2.114
		S45.356,33,46.168,33h5.052c1.533,0,2.78-1.247,2.78-2.78V23.78C54,22.247,52.753,21,51.22,21z M52,30.22
		C52,30.65,51.65,31,51.22,31h-5.052c-1.624,0-3.019,0.932-3.64,2.432c-0.622,1.5-0.295,3.146,0.854,4.294l3.572,3.571
		c0.305,0.305,0.305,0.8,0,1.104l-4.553,4.553c-0.304,0.304-0.799,0.306-1.104,0l-3.571-3.572c-1.149-1.149-2.794-1.474-4.294-0.854
		c-1.5,0.621-2.432,2.016-2.432,3.64v5.052C31,51.65,30.65,52,30.22,52H23.78C23.35,52,23,51.65,23,51.22v-5.052
		c0-1.624-0.932-3.019-2.432-3.64c-0.503-0.209-1.021-0.311-1.533-0.311c-1.014,0-1.997,0.4-2.761,1.164l-3.571,3.572
		c-0.306,0.306-0.801,0.304-1.104,0l-4.553-4.553c-0.305-0.305-0.305-0.8,0-1.104l3.572-3.571c1.148-1.148,1.476-2.794,0.854-4.294
		C10.851,31.932,9.456,31,7.832,31H2.78C2.35,31,2,30.65,2,30.22V23.78C2,23.35,2.35,23,2.78,23h5.052
		c1.624,0,3.019-0.932,3.64-2.432c0.622-1.5,0.295-3.146-0.854-4.294l-3.572-3.571c-0.305-0.305-0.305-0.8,0-1.104l4.553-4.553
		c0.304-0.305,0.799-0.305,1.104,0l3.571,3.571c1.147,1.147,2.792,1.476,4.294,0.854C22.068,10.851,23,9.456,23,7.832V2.78
		C23,2.35,23.35,2,23.78,2h6.439C30.65,2,31,2.35,31,2.78v5.052c0,1.624,0.932,3.019,2.432,3.64
		c1.502,0.622,3.146,0.294,4.294-0.854l3.571-3.571c0.306-0.305,0.801-0.305,1.104,0l4.553,4.553c0.305,0.305,0.305,0.8,0,1.104
		l-3.572,3.571c-1.148,1.148-1.476,2.794-0.854,4.294c0.621,1.5,2.016,2.432,3.64,2.432h5.052C51.65,23,52,23.35,52,23.78V30.22z"/>
	<path d="M27,18c-4.963,0-9,4.037-9,9s4.037,9,9,9s9-4.037,9-9S31.963,18,27,18z M27,34c-3.859,0-7-3.141-7-7s3.141-7,7-7
		s7,3.141,7,7S30.859,34,27,34z"/>
</g>
<g>
</g>
<g>
</g>
<g>
</g>
<g>
</g>
<g>
</g>
<g>
</g>
<g>
</g>
<g>
</g>
<g>
</g>
<g>
</g>
<g>
</g>
<g>
</g>
<g>
</g>
<g>
</g>
<g>
</g>
</symbol><symbol id="icon-skype" viewBox="0 0 400.932 400.932">
<path style="fill:#00AAF2;" d="M384.762,231.039c-6.361-8.792-9.309-19.53-9.297-30.382c0.001-0.063,0.001-0.126,0.001-0.19
	c0-96.649-78.35-174.999-174.999-174.999c-21.143,0-41.402,3.763-60.162,10.64c-10.149,3.72-21.267,4.435-31.672,1.504
	c-9.191-2.589-19.009-3.681-29.18-2.981c-42.725,2.94-77.121,37.955-79.335,80.724c-1.057,20.414,5.065,39.351,16.053,54.539
	c6.361,8.792,9.309,19.53,9.296,30.382c0,0.063,0,0.126,0,0.19c0,96.649,78.349,174.999,174.999,174.999
	c21.144,0,41.403-3.763,60.162-10.64c10.149-3.72,21.267-4.435,31.672-1.504c9.191,2.589,19.008,3.681,29.18,2.981
	c42.725-2.94,77.12-37.954,79.335-80.722C401.872,265.166,395.75,246.228,384.762,231.039z M206.873,169.093
	c35.286,8.391,88.608,21.071,88.608,79.806c0,28.934-14.249,51.006-40.124,62.149c-18.464,7.952-39.361,9.025-57.368,9.025
	c-55.336,0-90.286-43.028-91.747-44.86c-9.062-11.366-7.197-27.928,4.17-36.99c11.364-9.066,27.926-7.196,36.99,4.167
	c0.081,0.097,20.982,24.101,50.587,25.04c35.65,1.131,43.795-9.476,44.848-18.53c1.287-11.058-8.55-19.176-48.146-28.592
	c-33.562-7.982-84.287-20.044-84.287-74.137c0-16.845,6.851-71.807,95.013-71.807c55.668,0,88.527,43.829,89.899,45.695
	c8.61,11.713,6.096,28.189-5.617,36.798c-11.662,8.572-28.034,6.119-36.677-5.452c-0.62-0.797-19.429-21.723-47.605-24.398
	c-21.32-2.025-42.37,5.663-42.37,17.02C163.047,156.06,169.092,160.108,206.873,169.093z"/>
<g>
</g>
<g>
</g>
<g>
</g>
<g>
</g>
<g>
</g>
<g>
</g>
<g>
</g>
<g>
</g>
<g>
</g>
<g>
</g>
<g>
</g>
<g>
</g>
<g>
</g>
<g>
</g>
<g>
</g>
</symbol><symbol id="icon-telegram" viewBox="0 0 512 512">
<circle style="fill:#41B4E6;" cx="255.997" cy="256" r="255.997"/>
<path style="fill:#0091C8;" d="M512,256.003c0-6.238-0.235-12.419-0.673-18.546L405.228,131.36L106.772,248.759l114.191,114.192
	l1.498,5.392l1.939-1.955l0.008,0.008l-1.947,1.947L348.778,494.66C444.298,457.5,512,364.663,512,256.003z"/>
<polygon style="fill:#FFFFFF;" points="231.138,293.3 346.829,380.647 405.228,131.36 106.771,248.759 197.588,278.84 
	363.331,167.664 "/>
<polygon style="fill:#D2D2D7;" points="197.588,278.84 222.461,368.344 231.138,293.3 363.331,167.664 "/>
<polygon style="fill:#B9B9BE;" points="268.738,321.688 222.461,368.344 231.138,293.3 "/>
<g>
</g>
<g>
</g>
<g>
</g>
<g>
</g>
<g>
</g>
<g>
</g>
<g>
</g>
<g>
</g>
<g>
</g>
<g>
</g>
<g>
</g>
<g>
</g>
<g>
</g>
<g>
</g>
<g>
</g>
</symbol></svg>