<svg width="121" height="20" viewBox="0 0 121 20" fill="none" xmlns="http://www.w3.org/2000/svg">
<path d="M8.6764 4.59203C8.97942 5.26801 9.77195 5.55938 10.4479 5.25635C11.1239 4.95333 11.4153 4.1608 11.1123 3.48481L9.87685 0.780878C9.65541 0.291372 9.1659 0 8.65308 0C8.46661 0 8.28013 0.0349647 8.10531 0.116549C7.42932 0.419576 7.13795 1.21211 7.44098 1.88809L8.6764 4.59203Z" fill="white"/>
<path d="M66.8226 12.0045C66.4147 12.4707 65.9252 12.8553 65.3658 13.1583C64.8063 13.4497 64.2003 13.6479 63.5359 13.7294C63.3028 13.7527 63.0814 13.7761 62.8483 13.7761C62.0092 13.7761 61.17 13.6012 60.3308 13.2399C59.6549 12.9486 58.9789 12.5523 58.3379 12.0395C58.3379 10.2097 58.3379 6.46844 58.3379 6.39851C58.6992 5.55936 59.2236 4.86007 59.888 4.34725C60.5523 3.83444 61.3448 3.48479 62.3238 3.36824C62.5336 3.34493 62.7434 3.33328 62.9415 3.33328C64.2352 3.33328 65.4473 3.82278 66.3797 4.63863C66.8459 5.04655 67.2422 5.53605 67.5336 6.09549C67.8249 6.65492 68.0231 7.26098 68.1047 7.9253C68.128 8.13509 68.1396 8.34488 68.1396 8.54301C68.1163 9.87167 67.6385 11.0721 66.8226 12.0045ZM69.8646 4.84841C69.1886 3.58969 68.1979 2.54075 66.9974 1.81814C65.797 1.08389 64.3984 0.675964 62.9182 0.675964C62.6036 0.675964 62.3005 0.699274 61.9858 0.734239C60.5523 0.897407 59.2703 1.44519 58.2213 2.26103C57.9416 2.48247 57.6735 2.72722 57.4288 2.98363C57.2073 2.56406 56.9742 2.21441 56.7645 1.92304C56.3565 1.37526 56.0302 1.08389 55.9836 1.02561C55.4358 0.536106 54.585 0.582725 54.0955 1.1305C53.606 1.67828 53.6526 2.51744 54.1887 3.00694C54.212 3.03025 54.585 3.39155 54.9463 4.00926C55.1328 4.32394 55.3076 4.6969 55.4358 5.13979C55.564 5.57102 55.6456 6.06052 55.6572 6.6083C55.6572 11.0721 55.6572 17.9718 55.6572 17.9718C55.6572 18.7061 56.2516 19.3121 56.9976 19.3121C57.7318 19.3121 58.3379 18.7177 58.3379 17.9718C58.3379 17.9718 58.3379 16.8529 58.3379 15.2329C58.6525 15.4077 58.9672 15.5593 59.2936 15.6991C60.4241 16.177 61.6245 16.445 62.8483 16.445C63.1863 16.445 63.5126 16.4217 63.8506 16.3868C64.8529 16.2702 65.7853 15.9672 66.6245 15.5126C67.8832 14.8367 68.9322 13.846 69.6548 12.6455C70.389 11.4451 70.7969 10.0465 70.7969 8.56632C70.7969 8.25164 70.7736 7.94861 70.7387 7.63393C70.6221 6.63161 70.3191 5.68757 69.8646 4.84841Z" fill="white"/>
<path d="M32.8486 1.73656C31.6132 1.02561 30.2496 0.675964 28.9092 0.675964C28.5713 0.675964 28.2216 0.699274 27.8836 0.745894C27.1494 0.839133 26.6365 1.51512 26.7298 2.23772C26.823 2.97198 27.499 3.48479 28.2216 3.39155C28.443 3.35659 28.6761 3.34493 28.8976 3.34493C29.7834 3.34493 30.6691 3.56638 31.4966 4.04423C32.3358 4.53373 32.9885 5.20972 33.4313 5.99059C33.8742 6.77147 34.1073 7.6689 34.1073 8.56632C34.1073 9.4521 33.8859 10.3379 33.408 11.1654C32.9185 12.0045 32.2425 12.6572 31.4617 13.1001C30.6808 13.543 29.7834 13.7761 28.8859 13.7761C28.0002 13.7761 27.1144 13.5546 26.2869 13.0768C25.4477 12.5873 24.7951 11.9113 24.3522 11.1304C23.9093 10.3495 23.6762 9.4521 23.6762 8.55467C23.6762 7.6689 23.8976 6.78313 24.3755 5.95563C24.4804 5.76915 24.6086 5.58267 24.7368 5.40785C25.1797 4.82511 25.0631 3.98595 24.4804 3.53141C23.8976 3.08853 23.0585 3.20508 22.6039 3.78782C22.4058 4.04423 22.231 4.32394 22.0562 4.60366C21.3452 5.83908 20.9956 7.2027 20.9956 8.54301C20.9956 9.90664 21.3452 11.2469 22.0212 12.4357C22.6855 13.6245 23.6762 14.6502 24.9466 15.3844C26.182 16.0954 27.5456 16.445 28.8859 16.445C30.2496 16.445 31.5899 16.0954 32.7787 15.4194C33.9675 14.7551 34.9931 13.7644 35.7274 12.494C36.4383 11.2586 36.7879 9.89498 36.7879 8.55467C36.7879 7.19105 36.4383 5.85074 35.7623 4.66194C35.098 3.49645 34.1073 2.45916 32.8486 1.73656Z" fill="white"/>
<path d="M21.7182 2.55242C22.1611 1.95802 22.0445 1.13052 21.4618 0.675984C20.879 0.233098 20.0399 0.349647 19.5853 0.932391C19.2707 1.34031 18.9793 1.7832 18.7112 2.23774C18.3266 2.91372 18.0003 3.61302 17.7439 4.32396L14.7136 11.9929L12.0446 7.28431C11.8115 6.86473 11.3686 6.60832 10.8908 6.60832C10.4129 6.60832 9.97006 6.86473 9.7253 7.27265L6.99806 12.0045L2.5692 0.815842C2.37107 0.326337 1.88156 0 1.34544 0H1.32213C1.17061 0 1.00745 0.0349647 0.844277 0.0932391C0.156639 0.361302 -0.181353 1.14218 0.0983645 1.82982L5.5412 15.5942C5.72768 16.0721 6.17056 16.3984 6.68338 16.4334C7.19619 16.4684 7.6857 16.212 7.9421 15.7691L10.8791 10.6642L13.7695 15.7574C14.026 16.2003 14.5155 16.4684 15.0283 16.4334C15.5411 16.3984 15.984 16.0721 16.1821 15.5942L20.2613 5.27966C20.4595 4.70858 20.7159 4.13749 21.0305 3.60136C21.2403 3.2284 21.4734 2.87876 21.7182 2.55242Z" fill="white"/>
<path d="M50.0279 1.73656C48.7924 1.02561 47.4288 0.675964 46.0885 0.675964C45.7505 0.675964 45.4009 0.699274 45.0629 0.745894C44.3286 0.839133 43.8158 1.51512 43.909 2.23772C44.0023 2.97198 44.6783 3.48479 45.4009 3.39155C45.6223 3.35659 45.8554 3.34493 46.0768 3.34493C46.9626 3.34493 47.8484 3.56638 48.6759 4.04423C49.515 4.53373 50.1677 5.20972 50.6106 5.99059C51.0535 6.77147 51.2866 7.6689 51.2866 8.56632C51.2866 9.4521 51.0651 10.3379 50.5873 11.1654C50.0978 12.0045 49.4218 12.6572 48.6409 13.1001C47.86 13.543 46.9626 13.7761 46.0652 13.7761C45.1794 13.7761 44.2937 13.5546 43.4662 13.0768C42.627 12.5873 41.9743 11.9113 41.5314 11.1304C41.0886 10.3495 40.8555 9.4521 40.8555 8.55467C40.8555 7.6689 41.0769 6.78313 41.5548 5.95563C41.6596 5.76915 41.7879 5.58267 41.9161 5.40785C42.3589 4.81345 42.2424 3.98595 41.6596 3.53141C41.0769 3.08853 40.2377 3.20508 39.7832 3.78782C39.5851 4.04423 39.4103 4.32394 39.2354 4.60366C38.5245 5.83908 38.1748 7.2027 38.1748 8.54301C38.1748 9.90664 38.5245 11.2469 39.2005 12.4357C39.8648 13.6245 40.8555 14.6502 42.1142 15.3844C43.3496 16.0954 44.7132 16.445 46.0535 16.445C47.4172 16.445 48.7575 16.0954 49.9463 15.4194C51.1351 14.7551 52.1607 13.7644 52.895 12.494C53.6059 11.2586 53.9556 9.89498 53.9556 8.55467C53.9556 7.19105 53.6059 5.85074 52.9299 4.66194C52.2773 3.49645 51.2866 2.45916 50.0279 1.73656Z" fill="white"/>
<path d="M83.3375 12.0045C82.9296 12.4707 82.4401 12.8553 81.8807 13.1583C81.3213 13.4497 80.7152 13.6479 80.0509 13.7294C79.8178 13.7527 79.5963 13.7761 79.3632 13.7761C78.5241 13.7761 77.6849 13.6012 76.8458 13.2399C76.1698 12.9486 75.4938 12.5523 74.8528 12.0395C74.8528 10.2097 74.8528 6.46844 74.8528 6.39851C75.2141 5.55936 75.7386 4.86007 76.4029 4.34725C77.0672 3.83444 77.8598 3.48479 78.8388 3.36824C79.0486 3.34493 79.2583 3.33328 79.4565 3.33328C80.7502 3.33328 81.9623 3.82278 82.8947 4.63863C83.3609 5.04655 83.7455 5.53605 84.0485 6.09549C84.3399 6.65492 84.538 7.26098 84.6196 7.9253C84.6429 8.13509 84.6545 8.34488 84.6545 8.54301C84.6429 9.87167 84.165 11.0721 83.3375 12.0045ZM86.3911 4.84841C85.7151 3.58969 84.7245 2.54075 83.524 1.81814C82.3236 1.08389 80.925 0.675964 79.4448 0.675964C79.1301 0.675964 78.8271 0.699274 78.5124 0.734239C77.0789 0.897407 75.7968 1.44519 74.7479 2.26103C74.4682 2.48247 74.2001 2.72722 73.9554 2.98363C73.7339 2.56406 73.5008 2.21441 73.291 1.92304C72.8831 1.37526 72.5568 1.08389 72.5102 1.02561C71.9624 0.536106 71.1116 0.582725 70.6221 1.1305C70.1326 1.67828 70.1792 2.51744 70.7153 3.00694C70.7386 3.03025 71.1116 3.39155 71.4729 4.00926C71.6593 4.32394 71.8342 4.6969 71.9624 5.13979C72.0906 5.57102 72.1722 6.06052 72.1722 6.6083C72.1722 11.0721 72.1722 17.9718 72.1722 17.9718C72.1722 18.7061 72.7666 19.3121 73.5125 19.3121C74.2467 19.3121 74.8528 18.7177 74.8528 17.9718C74.8528 17.9718 74.8528 16.8529 74.8528 15.2329C75.1675 15.4077 75.4822 15.5593 75.8085 15.6991C76.939 16.177 78.1395 16.445 79.3632 16.445C79.7012 16.445 80.0276 16.4217 80.3656 16.3868C81.3679 16.2702 82.3003 15.9672 83.1394 15.5126C84.3981 14.8367 85.4471 13.846 86.1697 12.6455C86.9039 11.4451 87.3119 10.0465 87.3119 8.56632C87.3119 8.25164 87.2886 7.94861 87.2536 7.63393C87.1487 6.63161 86.8457 5.68757 86.3911 4.84841Z" fill="white"/>
<path d="M104.281 7.92531C104.281 6.80644 103.78 5.55937 103.233 4.61532C103.069 4.32395 102.883 4.05588 102.685 3.79948C102.242 3.21673 101.403 3.10018 100.808 3.54307C100.214 3.98596 100.109 4.82511 100.552 5.41951C100.68 5.59433 100.797 5.76915 100.913 5.96729C101.391 6.79478 101.612 7.68056 101.612 8.56633C101.612 9.46375 101.379 10.3612 100.936 11.1421C100.494 11.9229 99.8409 12.5989 99.0018 13.0884C98.1743 13.5663 97.2885 13.7877 96.4027 13.7877C95.5053 13.7877 94.6079 13.5546 93.827 13.1117C93.0461 12.6688 92.3701 12.0162 91.8806 11.177C91.4028 10.3495 91.1814 9.46375 91.1814 8.57798C91.1814 7.68055 91.4144 6.78313 91.8573 6.00225C92.3002 5.22137 92.9529 4.54539 93.792 4.05588C94.6195 3.57803 95.5053 3.35659 96.3911 3.35659C96.6125 3.35659 96.8456 3.36825 97.0671 3.40321C97.8013 3.49645 98.4657 2.98364 98.5589 2.24938C98.6521 1.51512 98.1393 0.850791 97.4051 0.757551C97.0671 0.710932 96.7291 0.687622 96.3794 0.687622C95.0391 0.687622 93.6872 1.02561 92.4401 1.74822C91.1813 2.47082 90.1907 3.50811 89.5147 4.6969C88.8504 5.8857 88.4891 7.22601 88.4891 8.58964C88.4891 9.92995 88.8271 11.2819 89.5497 12.529C90.2723 13.7877 91.3096 14.7784 92.4984 15.4544C93.6872 16.1187 95.0275 16.48 96.3911 16.48C97.7314 16.48 99.0834 16.142 100.33 15.4194C101.286 14.86 102.09 14.1374 102.72 13.2982C103.023 13.9742 103.372 14.6269 103.78 15.2329C104.188 15.8506 105.016 16.0138 105.633 15.6059C106.251 15.198 106.414 14.3705 106.006 13.7528C104.922 12.0511 104.281 10.0698 104.281 7.92531Z" fill="white"/>
<path d="M119.386 0.477844C118.652 0.477844 118.046 1.07224 118.046 1.81816C118.046 1.81816 118.046 7.76215 118.046 11.4684C117.486 11.8414 116.915 12.1211 116.344 12.3309C114.783 12.8903 112.999 12.832 111.484 12.156C110.284 11.6199 109.526 10.6176 109.2 9.35887C108.978 8.51972 108.967 7.6456 108.967 6.78314C108.967 5.03491 108.582 3.69459 108.174 2.78551C107.766 1.87643 107.347 1.38693 107.265 1.29369C106.764 0.745907 105.925 0.710942 105.377 1.20045C104.841 1.68995 104.794 2.5291 105.272 3.07688C105.272 3.07688 105.529 3.37991 105.785 3.98597C106.216 5.02325 106.298 6.14212 106.298 7.24933C106.298 9.0675 106.647 10.9439 107.72 12.4358C108.489 13.508 109.584 14.3005 110.82 14.7667C112.883 15.5476 115.179 15.5942 117.253 14.8483C117.463 14.7784 117.661 14.6968 117.859 14.6036C117.533 15.6758 116.717 16.48 115.703 16.9112C113.71 17.762 111.17 17.3192 109.328 16.3052C108.687 15.9555 107.871 16.1886 107.51 16.8297C107.16 17.4707 107.393 18.2865 108.034 18.6478C109.654 19.5336 111.473 20.0114 113.349 19.9998C114.421 19.9998 115.47 19.8483 116.472 19.4753C117.941 18.9159 119.211 17.8786 119.946 16.48C120.435 15.5593 120.668 14.5336 120.703 13.4964V1.68995C120.645 1.01397 120.074 0.477844 119.386 0.477844Z" fill="white"/>
</svg>
